<?xml version="1.0" encoding="utf-8"?>
<!-- Generator: Adobe Illustrator 18.0.0, SVG Export Plug-In . SVG Version: 6.00 Build 0)  -->
<!DOCTYPE svg PUBLIC "-//W3C//DTD SVG 1.1//EN" "http://www.w3.org/Graphics/SVG/1.1/DTD/svg11.dtd">
<svg version="1.1" id="Layer_1" xmlns="http://www.w3.org/2000/svg" xmlns:xlink="http://www.w3.org/1999/xlink" x="0px" y="0px"
	 viewBox="146.6 348.2 1900.8 1200" enable-background="new 146.6 348.2 1900.8 1200" xml:space="preserve">
<path fill="#FFFFFF" d="M1913,855.8L1863.8,659c13.2-2.4,24-14.4,24-28.8V599c0-68.4-56.4-124.8-124.8-124.8h-223.2v-64.8
	c0-33.6-27.6-61.2-61.2-61.2h-1140c-33.6,0-61.2,27.6-61.2,61.2V947c0,16.8,13.2,30,30,30s30-13.2,30-30V408.2
	c0-1.2,1.2-2.4,2.4-2.4h1140c1.2,0,2.4,1.2,2.4,2.4V947c0,16.8,13.2,30,30,30s30-13.2,30-30v-33.6H1889l0,0l0,0
	c43.2,0,79.2,28.8,92.4,67.2H1889c-16.8,0-30,13.2-30,30v63.6c0,51.6,42,93.6,93.6,93.6h33.6v130.8h-78
	c-25.2-73.2-96-127.2-177.6-127.2c-82.8,0-152.4,52.8-177.6,127.2h-14.4v-223.2c0-16.8-13.2-30-30-30s-30,13.2-30,30v223.2H861.8
	c-25.2-73.2-96-127.2-177.6-127.2c-82.8,0-152.4,52.8-177.6,127.2H336.2c-1.2,0-2.4-1.2-2.4-2.4v-64.8h128.4c16.8,0,30-13.2,30-30
	s-13.2-30-30-30H176.6c-16.8,0-30,13.2-30,30s13.2,30,30,30h97.2v64.8c0,33.6,27.6,61.2,61.2,61.2h162c0,1.2,0,1.2,0,2.4
	c0,103.2,84,188.4,188.4,188.4s188.4-84,188.4-188.4c0-1.2,0-1.2,0-2.4h669.6c0,1.2,0,1.2,0,2.4c0,103.2,84,188.4,188.4,188.4
	c103.2,0,188.4-84,188.4-188.4c0-1.2,0-1.2,0-2.4h97.2c16.8,0,30-13.2,30-30v-316.8C2045,932.6,1987.4,866.6,1913,855.8z
	 M1538.6,660.2h264l48,194.4h-312V660.2L1538.6,660.2z M1761.8,533c36,0,64.8,28.8,64.8,64.8v2.4h-289.2V533H1761.8z M685.4,1487
	c-70.8,0-128.4-57.6-128.4-128.4s57.6-128.4,128.4-128.4s128.4,57.6,128.4,128.4S756.2,1487,685.4,1487z M1730.6,1487
	c-70.8,0-128.4-57.6-128.4-128.4s57.6-128.4,128.4-128.4s128.4,57.6,128.4,128.4S1801.4,1487,1730.6,1487z M1952.6,1107.8
	c-18,0-33.6-15.6-33.6-33.6v-33.6h67.2v67.2H1952.6L1952.6,1107.8z"/>
<path fill="#FFFFFF" d="M685.4,1297.4c-33.6,0-61.2,27.6-61.2,61.2s27.6,61.2,61.2,61.2s61.2-27.6,61.2-61.2
	S719,1297.4,685.4,1297.4z"/>
<path fill="#FFFFFF" d="M1730.6,1297.4c-33.6,0-61.2,27.6-61.2,61.2s27.6,61.2,61.2,61.2s61.2-27.6,61.2-61.2
	S1764.2,1297.4,1730.6,1297.4z"/>
<path fill="#FFFFFF" d="M908.6,1200.2c0,16.8,13.2,30,30,30h444c16.8,0,30-13.2,30-30s-13.2-30-30-30h-444
	C921.8,1170.2,908.6,1184.6,908.6,1200.2z"/>
<path fill="#FFFFFF" d="M241.4,1103h380.4c16.8,0,30-13.2,30-30s-13.2-30-30-30H241.4c-16.8,0-30,13.2-30,30S224.6,1103,241.4,1103z
	"/>
<path fill="#FFFFFF" d="M1139,641L875,905L738.2,767c-12-12-30-12-42,0s-12,30,0,42l158.4,158.4c6,6,13.2,8.4,21.6,8.4
	s15.6-2.4,21.6-8.4L1181,683c12-12,12-30,0-42C1170.2,629,1151,629,1139,641z"/>
</svg>
