<?xml version="1.0" encoding="utf-8"?>
<!-- Generator: Adobe Illustrator 18.0.0, SVG Export Plug-In . SVG Version: 6.00 Build 0)  -->
<!DOCTYPE svg PUBLIC "-//W3C//DTD SVG 1.1//EN" "http://www.w3.org/Graphics/SVG/1.1/DTD/svg11.dtd">
<svg version="1.1" id="Layer_1" xmlns="http://www.w3.org/2000/svg" xmlns:xlink="http://www.w3.org/1999/xlink" x="0px" y="0px"
	 viewBox="486.4 0 947.5 1200" enable-background="new 486.4 0 947.5 1200" xml:space="preserve">
<g>
	<path fill="#FFFFFF" d="M1378.2,0H541.8c-30.5,0-55.4,24.9-55.4,55.4v1123.5c0,11.6,9.5,21.1,21.1,21.1h905.3
		c11.6,0,21.1-9.5,21.1-21.1V55.4C1433.7,24.9,1408.8,0,1378.2,0L1378.2,0z M1391.6,55.4v155.1H898.9V42.1h479.3
		C1385.6,42.1,1391.6,48.1,1391.6,55.4L1391.6,55.4z M541.8,42.1h315.1v168.4H528.4V55.4C528.4,48.1,534.4,42.1,541.8,42.1
		L541.8,42.1z M528.4,1157.5V252.6h863.2v905.3H528.4V1157.5z"/>
	<path fill="#FFFFFF" d="M960,319.3c-213.7,0-387.4,173.7-387.4,387.4S746.3,1094,960,1094s387.4-173.7,387.4-387.4
		S1173.7,319.3,960,319.3L960,319.3z M960,1051.9c-190.5,0-345.3-154.7-345.3-345.3S769.5,361.4,960,361.4s345.3,154.7,345.3,345.3
		S1150.2,1051.9,960,1051.9L960,1051.9z"/>
	<path fill="#FFFFFF" d="M960,438.9c-147.7,0-267.7,120-267.7,267.7s120,267.7,267.7,267.7s267.7-120,267.7-267.7
		S1107.7,438.9,960,438.9L960,438.9z M960,932.3c-124.6,0-225.6-101.4-225.6-225.6c0-124.6,101.4-225.6,225.6-225.6
		c70.9,0,134,32.6,175.4,83.9c-30.5,40.7-47,90.5-47,141.8c0,51.2,16.5,101.1,47,141.8C1094,899.6,1030.9,932.3,960,932.3L960,932.3
		z M1160.4,810.5c-19.3-30.9-29.8-67-29.8-103.9s10.5-73,29.8-103.9c16.1,31.2,25.3,66.3,25.3,103.9
		C1185.6,743.9,1176.5,779.3,1160.4,810.5L1160.4,810.5z"/>
	<path fill="#FFFFFF" d="M1143.2,193.7c37.2,0,67.4-30.2,67.4-67.4s-30.2-67.4-67.4-67.4c-37.2,0-67.4,30.2-67.4,67.4
		S1106,193.7,1143.2,193.7L1143.2,193.7z M1143.2,101.1c14,0,25.3,11.2,25.3,25.3s-11.2,25.3-25.3,25.3c-14,0-25.3-11.2-25.3-25.3
		S1129.1,101.1,1143.2,101.1L1143.2,101.1z"/>
	<path fill="#FFFFFF" d="M1298.9,193.7c37.2,0,67.4-30.2,67.4-67.4s-30.2-67.4-67.4-67.4s-67.4,30.2-67.4,67.4
		S1261.8,193.7,1298.9,193.7L1298.9,193.7z M1298.9,101.1c14,0,25.3,11.2,25.3,25.3s-11.2,25.3-25.3,25.3s-25.3-11.2-25.3-25.3
		S1284.9,101.1,1298.9,101.1L1298.9,101.1z"/>
</g>
</svg>
