<?xml version="1.0" encoding="utf-8"?>
<!-- Generator: Adobe Illustrator 18.0.0, SVG Export Plug-In . SVG Version: 6.00 Build 0)  -->
<!DOCTYPE svg PUBLIC "-//W3C//DTD SVG 1.1//EN" "http://www.w3.org/Graphics/SVG/1.1/DTD/svg11.dtd">
<svg version="1.1" id="Layer_1" xmlns="http://www.w3.org/2000/svg" xmlns:xlink="http://www.w3.org/1999/xlink" x="0px" y="0px"
	 viewBox="459.8 0 1000.5 1200" enable-background="new 459.8 0 1000.5 1200" xml:space="preserve">
<g>
	<path fill="#FFFFFF" d="M1234,20.2C1226.9,8.1,1213.8,0,1199.1,0H720.9c-14.6,0-27.8,7.6-34.8,20.2l-56.6,103H500.2
		c-22.2,0-40.4,18.2-40.4,40.4v996c0,22.2,18.2,40.4,40.4,40.4h919.7c22.2,0,40.4-18.2,40.4-40.4v-996c0-22.2-18.2-40.4-40.4-40.4
		h-129.3L1234,20.2z M1220.9,164.1l-118.7,237.4l-86.9-86.9l176.8-204L1220.9,164.1z M728.4,111.1l176.3,204l-86.9,86.4L699.1,164.1
		L728.4,111.1z M1110.8,80.8L959.8,255L809.2,80.8H1110.8z M540.6,204h87.9l141.9,284.3c5.6,11.6,16.7,19.7,29.8,21.7
		c2,0.5,4.5,0.5,6.6,0.5c10.6,0,20.7-4,28.8-11.6l83.8-84.8v705.1H540.6V204z M1379.4,1119.2h-378.8V414.1l84.3,84.3
		c7.6,7.6,18.2,11.6,28.8,11.6c2,0,4.5,0,6.6-0.5c12.6-2,23.7-10.1,29.8-21.7L1292,203.5h87.9v915.7L1379.4,1119.2L1379.4,1119.2z"
		/>
</g>
</svg>
