<?xml version="1.0" encoding="utf-8"?>
<!-- Generator: Adobe Illustrator 18.0.0, SVG Export Plug-In . SVG Version: 6.00 Build 0)  -->
<!DOCTYPE svg PUBLIC "-//W3C//DTD SVG 1.1//EN" "http://www.w3.org/Graphics/SVG/1.1/DTD/svg11.dtd">
<svg version="1.1" id="Layer_1" xmlns="http://www.w3.org/2000/svg" xmlns:xlink="http://www.w3.org/1999/xlink" x="0px" y="0px"
	 viewBox="324.7 141.1 1181.6 1199.9" enable-background="new 324.7 141.1 1181.6 1199.9" xml:space="preserve">
<g transform="translate(1 1)">
	<path fill="#FFFFFF" d="M1043.7,1340H700.3c-22.7,0-43.4-12.4-53.9-33c-2.1-6.1-8.2-10.3-14.5-10.3l-262.7-18.5
		c-29.1-6.1-45.5-24.8-45.5-49.7c0-30.9,24.8-53.9,53.9-53.9h1007.6c30.9,0,53.9,24.8,53.9,53.9c0,24.8-16.6,43.4-45.5,49.7h-2.1
		l-281.5,18.5c-6.1,0-12.4,4.2-14.5,10.3C1087.3,1327.6,1066.4,1340,1043.7,1340z M375.5,1236.6l258.5,18.5
		c20.6,2.1,39.4,14.5,49.7,33c4.2,6.1,10.3,10.3,16.6,10.3h345.5c6.1,0,12.4-4.2,16.6-10.3c10.3-18.5,29.1-30.9,49.7-33l277.3-18.5
		c10.3-2.1,10.3-6.1,10.3-8.2c0-6.1-6.1-12.4-12.4-12.4H377.6c-6.1,0-12.4,6.1-12.4,12.4C365.1,1230.3,365.1,1234.5,375.5,1236.6z"
		/>
	<path fill="#FFFFFF" d="M882.4,512.4c-6.1,0-10.3-2.1-14.5-6.1c-30.9-33-47.6-66.1-47.6-99.4c0-33,16.6-64.2,47.6-95.2
		c22.7-20.6,35.2-43.4,35.2-66.1s-12.4-45.5-35.2-70.3c-8.2-8.2-8.2-20.6,0-29.1c8.2-8.2,20.6-8.2,29.1,0
		c33,30.9,47.6,66.1,47.6,99.4c0,33-16.6,66.1-47.6,95.2c-22.7,20.6-35.2,43.4-35.2,66.1s12.4,45.5,35.2,70.3
		c8.2,8.2,8.2,20.6,0,29.1C892.7,510.3,888.5,512.4,882.4,512.4z"/>
	<path fill="#FFFFFF" d="M1110,512.4c-6.1,0-10.3-2.1-14.5-6.1c-30.9-33-47.6-66.1-47.6-99.4c0-33,16.6-64.2,47.6-95.2
		c22.7-22.7,35.2-43.4,35.2-66.1s-12.4-45.5-35.2-70.3c-8.2-8.2-8.2-20.6,0-29.1c8.2-8.2,20.6-8.2,29.1,0
		c33,30.9,47.6,64.2,47.6,99.4c0,33-16.6,66.1-49.7,95.2c-22.7,20.6-35.2,43.4-35.2,66.1s12.4,45.5,35.2,70.3
		c8.2,8.2,8.2,20.6,0,29.1C1120.3,510.3,1114,512.4,1110,512.4z"/>
	<path fill="#FFFFFF" d="M675.5,512.4c-6.1,0-10.3-2.1-14.5-6.1C630,473,613.3,440,613.3,407s16.6-64.2,47.6-95.2
		c22.7-22.7,35.2-43.4,35.2-66.1s-12.4-45.5-35.2-70.3c-8.2-8.2-8.2-20.6,0-29.1c8.2-8.2,20.6-8.2,29.1,0c33,30.9,47.6,64,47.6,99.1
		c0,33-16.6,66.1-49.7,95.2c-22.7,20.6-35.2,43.4-35.2,66.1s12.4,45.5,35.2,70.3c8.2,8.2,8.2,20.6,0,29.1
		C685.8,510.3,679.4,512.4,675.5,512.4z"/>
	<path fill="#FFFFFF" d="M882.4,1215.8c-451.2,0-515.2-291.6-517.3-579.1c0-10.3,4.2-20.6,12.4-29.1c8.2-8.4,18.5-12.4,29.1-12.4
		h951.8c10.3,0,20.6,4.2,29.1,12.4c8.2,8.2,12.4,18.5,12.4,29.1C1397.6,924.2,1333.3,1215.8,882.4,1215.8z M406.4,636.6
		c2.1,279.4,62.1,537.9,475.8,537.9S1356.1,916,1358,636.6H406.4L406.4,636.6z"/>
	<path fill="#FFFFFF" d="M1225.8,1075.2l33-39.4c84.8-105.5,99.4-256.6,101.5-378.5v-14.5l16.6-6.1h4.2
		c68.2,0,124.2,74.5,124.2,165.5c0,117.9-70.3,246.1-227.6,267L1225.8,1075.2z M1399.4,682.1c-4.2,107.6-16.6,231.8-78.5,333
		c103.4-35.2,140.6-132.4,140.6-213C1461.5,744.2,1434.8,694.5,1399.4,682.1z"/>
	<path fill="#FFFFFF" d="M758.2,1112.4c-2.1,0-2.1,0-4.2,0c-163.4-29.1-252.4-122.1-285.5-306.3c-2.1-10.3,6.1-22.7,16.6-24.8
		c10.3-2.1,22.7,6.1,24.8,16.6c30.9,165.5,105.5,248.2,252.4,273c10.3,2.1,18.5,12.4,16.6,24.8
		C776.7,1106.1,768.5,1112.4,758.2,1112.4z"/>
</g>
</svg>
